<svg xmlns="http://www.w3.org/2000/svg" xmlns:xlink="http://www.w3.org/1999/xlink" viewBox="0 0 369.55 369.56"><defs><style>.cls-1{fill:url(#radial-gradient);}.cls-2{fill:url(#radial-gradient-2);}.cls-3{fill:#fc0;}.cls-4{fill:url(#linear-gradient);}</style><radialGradient id="radial-gradient" cx="184.78" cy="184.78" r="184.78" gradientUnits="userSpaceOnUse"><stop offset="0" stop-color="#ff0"/><stop offset="0.36" stop-color="#fd0"/><stop offset="1" stop-color="#f90"/></radialGradient><radialGradient id="radial-gradient-2" cx="183.19" cy="249.46" r="210.02" gradientUnits="userSpaceOnUse"><stop offset="0" stop-color="#ff0"/><stop offset="0.06" stop-color="#fff700"/><stop offset="0.49" stop-color="#ffc400"/><stop offset="0.82" stop-color="orange"/><stop offset="1" stop-color="#f90"/></radialGradient><linearGradient id="linear-gradient" x1="187.37" y1="161.77" x2="187.37" y2="73.02" gradientUnits="userSpaceOnUse"><stop offset="0" stop-color="#fc0"/><stop offset="1" stop-color="#fffebf"/></linearGradient></defs><title>Asset 2</title><g id="Layer_2" data-name="Layer 2"><g id="Layer_1-2" data-name="Layer 1"><path class="cls-1" d="M67.47,107.85c-8.17-6.13-19.93-14.31-36.29-25.56q27.6,14.58,41.4,19.94c10.23,3.58,15.85,4.09,17.89,2,2-2.55,1-8.69-4.6-17.89C81.27,78.2,72.58,65.43,59.8,48.56c13.29,14.31,23.52,25,30.67,31.69s10.23,9.2,10.23,7.67C100.19,84.85,90,70.54,69,45,78.2,55.2,85.87,63.89,92,70c8.18,8.17,13.8,12.26,15.84,12.26,2.56-.51,1.54-4.6-2.55-13.29C100.7,59.8,93,47.54,81.78,31.18c13.81,16.36,24,27.6,31.19,34.25,7.66,7.15,12.77,10.22,15.84,8.69,2.55-1.54,3.58-7.67,2.05-17.89-1-9.72-4.1-25-9.21-45.5q10,27.6,16.87,41.41c4.6,8.17,7.16,11.75,8.69,9.71q2.31-2.31,0-19.94c-1.53-8.69-4.09-20.44-7.15-34.24,3.57,13.8,6.64,25,9.7,33.73,3.07,11.25,5.63,16.87,6.65,17.89s1-3.06-.51-12.27c-1-9.71-3.58-24.53-7.67-43.44C154.37,23.51,159,38.34,162.54,47c4.1,9.72,7.16,14.32,9.72,14.32,3.06-.51,5.11-5.63,7.15-15.85C181.46,35.78,183,21,185,0c.5,40.38,1.53,60.31,2.55,60.31.51,0,1.53-5.11,2.56-14.82L192.7,0c-.51,19.42-1,34.25-.51,44.47q0,13.8,1.54,12.27c2-2.56,4.59-19.94,7.66-53.16-.51,13.8-1,25-1,34.24,0,11.76,1,18.41,2.56,19.94,2,1.53,4.08-2,7.66-11.25,2.56-9.71,6.14-24,10.23-43.44-2,21-2.56,36.29-2.56,46.51.51,10.22,2.56,15.85,5.11,16.87,3.07,1,7.67-2.56,14.31-10.74,6.14-7.66,14.31-20.44,25.05-38.84-8.18,17.89-13.8,31.69-16.87,40.89s-3.07,13.8-1,13.29c2.56,0,7.15-4.6,13.8-14.31A259.09,259.09,0,0,0,278.06,27.6c-6.64,12.27-12.77,22.49-16.86,30.67C255.57,68.49,253,74.12,253,76.16c.51,1.53,3.07-1.53,8.69-9.2C267.84,59.29,276,47,287.26,30.67q-14.56,27.6-19.93,41.4c-3.58,10.22-4.09,16.36-2,18.4,2.55,2,8.69.51,17.89-4.6,8.17-5.11,20.95-13.8,37.82-26.07-14.31,13.29-25.05,23-31.69,30.67-6.65,6.65-9.2,9.71-7.67,9.71S288.8,96.61,298,89.45c7.15-5.62,16.35-12.78,27.09-21.47-10.74,9.2-18.91,16.87-25.56,23.51-8.18,8.69-12.27,13.81-12.27,15.85.51,2.56,4.61,1.53,13.29-2.56a401.93,401.93,0,0,0,37.83-23.51c-16.36,13.8-27.6,24-34.25,31.18-7.15,7.67-10.22,12.78-8.69,15.85,1.54,2.55,7.67,3.57,17.89,2,9.71-1,25.05-4.09,45.49-9.2q-27.58,10-41.4,16.87c-8.18,4.6-11.75,7.15-9.71,8.69q2.3,2.3,19.94,0c8.68-1.54,19.93-3.58,33.22-6.65-13.29,3.07-24,6.65-32.71,9.2-11.25,3.07-16.87,5.63-17.89,6.65s3.06,1,12.27,0c9.7-1.54,24.53-4.09,43.44-8.18-19.93,6.13-34.76,10.74-43.44,14.31-9.72,4.09-14.32,7.16-14.32,10.22.51,2.56,5.62,4.61,15.85,6.65,9.71,2,24.53,3.58,45.48,5.62-40.37.51-60.31,1.54-60.31,2.56s19.94,3.06,60.31,5.62c-19.41-1-34.24-1.53-44.46-1q-13.8,0-12.27,1.53c1.53,1,7.67,2.56,18.91,4.09,9.2,1,20.45,2.56,34.25,4.09-13.8-1-25.05-1.53-34.25-1.53-11.75,0-18.4,1-19.93,2.55-1.53,2.05,2,4.09,11.24,7.16,9.72,3.07,24,6.64,43.45,10.73-20.95-2-36.29-3.06-46.51-2.55s-15.85,2-16.87,5.11,2.56,7.67,10.73,14.31c7.67,6.14,21,14.31,38.85,25.05q-26.83-12.27-41.4-16.87c-8.69-2.56-13.29-3.07-13.29-.51.51,2,5.11,6.64,14.31,13.8,7.67,5.11,17.38,11.76,29.14,18.91-11.76-6.64-22-12.27-30.16-16.87-10.22-5.62-15.85-8.18-17.89-8.18-1.53.52,1.53,3.07,9.2,8.7,8.18,6.13,19.94,14.82,36.29,25.55-18.4-9.71-32.71-16.35-41.4-19.93q-15.35-5.37-18.4-1.54c-2,2.05-.51,8.18,4.6,17.38,5.11,8.18,13.8,21,26.07,37.83-13.3-14.31-23.52-25.05-30.67-31.69-6.65-6.65-9.72-9.21-9.72-7.67s3.58,7.16,10.74,16.36c5.11,7.15,12.27,15.84,21,26.57-9.2-10.22-16.87-18.91-23-25-8.69-8.18-13.8-12.27-15.84-11.76-2.56,0-1.54,4.09,2.55,12.78,4.6,9.2,12.27,21.47,23,37.83-13.28-16.36-23.51-27.61-30.67-34.25-7.66-7.16-12.77-10.22-15.84-8.69-2.55,1.53-3.58,7.67-2,17.89,1,9.71,4.61,25.05,9.72,45.49-7.16-18.4-12.78-32.2-17.38-41.4-4.6-8.18-7.16-11.76-9.2-9.71-1,1.53-1,8.17,1,19.93a319,319,0,0,0,6.14,33.23c-3.07-13.29-6.14-24-8.69-32.72-3.58-10.73-6.14-16.86-7.16-17.89s-1,3.07,0,12.27c1.54,9.71,4.6,24.53,8.18,43.45-6.13-19.94-10.74-34.76-14.31-43.45-4.1-9.71-7.16-14.31-9.72-13.8-2.55,0-5.11,5.11-7.15,15.33-2,9.72-4.09,25.05-5.62,46-1-40.38-1.54-60.83-2.56-60.83s-2.56,17.89-5.11,53.16c.51-15.85,1-28.11.51-37.31,0-9.21-.51-13.29-1.54-12.27-2,2.56-4.59,20.45-8.17,53.67,1-13.8,1.53-25.56,1.53-34.76,0-11.76-1-18.4-2.56-19.93-2-1.54-4.08,2.55-7.15,11.24-3.58,9.71-6.65,24-10.74,43.45,2.05-21,3.07-36.29,2.56-46-.51-10.74-2.05-16.36-5.11-17.38s-7.67,2.55-14.31,10.73c-6.14,7.67-14.31,21-25,38.85,8.18-17.89,13.8-31.69,16.87-40.89,2.55-9.2,3.07-13.8.51-13.29-2,0-6.64,4.6-13.8,14.31-5.11,7.15-11.76,16.87-18.91,28.62,7.15-12.26,12.78-22,16.86-30.15,5.11-10.23,8.18-15.85,8.18-17.38-.51-1.54-3.07,1-8.69,8.69-6.13,8.17-14.82,19.93-25.55,36.29q14.56-27.6,19.93-41.4c3.58-10.23,4.09-15.85,1.54-18.41-2-2-8.19-.51-17.39,5.11-8.69,4.61-21,13.3-37.82,25.56,14.31-12.78,25.05-23,31.69-30.67,6.65-6.64,9.2-9.71,7.67-9.71s-7.16,3.58-16.36,10.73c-7.15,5.63-16.35,12.78-27.09,21.47,10.74-9.2,18.91-16.86,25.56-23.51,8.18-8.18,12.27-13.8,11.76-15.84,0-2.56-4.1-1.54-12.78,2.55-9.21,4.6-21.47,12.27-37.83,23.51,16.36-13.8,27.61-24,34.25-31.18,7.15-7.66,10.22-12.78,8.69-15.84-1.54-2.56-7.67-3.58-17.89-2.05-9.71,1-25,4.09-45.49,9.21q27.6-10,41.4-16.87c8.18-4.6,11.76-7.16,9.71-8.69q-2.3-2.31-19.94,0c-9.2,1.53-20.44,4.09-34.24,7.15,13.8-3.58,25-6.64,33.74-9.71,10.73-3.07,16.86-5.11,17.88-6.64q1.55-1.54-12.26,0c-9.71,1.53-24.54,4.09-43.45,8.17C24,215.19,38.85,210.59,47.54,207c9.71-4.09,14.31-7.15,13.8-10.22,0-2.55-5.11-4.6-15.34-6.65-9.71-2-25-3.57-46-5.62C40.38,184,60.83,183,60.83,182S40.89,178.9.51,176.86c19.43.51,34.25,1,44,.51q14.56,0,12.27-1.54c-1-1-7.16-2.55-18.91-4.08-8.69-1-19.94-2.56-33.23-3.58,13.29.51,24.54,1,33.74,1,11.75,0,18.4-1,19.93-2.56,1.53-2-2.55-4.09-11.24-7.15-9.72-3.07-24-6.65-43.45-10.74,21,2,36.29,3.07,46,2.56,10.73-.51,16.36-2.05,17.38-5.11s-2.55-7.67-10.73-14.32c-7.67-6.13-21-14.31-38.85-25,17.89,8.18,31.69,13.8,40.89,16.87s13.8,3.06,13.29,1c0-2.56-4.6-7.16-14.31-13.8A260.35,260.35,0,0,0,28.11,91.49c12.27,6.65,22.5,12.78,30.67,16.87C69,114,74.63,116.54,76.16,116.54,77.69,116,75.14,113.47,67.47,107.85Z"/><path class="cls-2" d="M186.45,66.39A118.54,118.54,0,1,0,305,184.92,118.54,118.54,0,0,0,186.45,66.39Z"/><path class="cls-3" d="M258.73,271.13c-20.56,15.72-51.13,23.46-71.31,22.74a122.82,122.82,0,0,1-77.63-27.6A124.47,124.47,0,0,1,93,249.19c-5-6.29-8.21-11.89-8.3-11.83.09-.06,3,5.69,7.7,12.29a136.15,136.15,0,0,0,15.9,18.28,115.77,115.77,0,0,0,79.08,31.76c21.28.82,53.07-8.93,73.12-26.22a120.11,120.11,0,0,0,29.66-36A123.89,123.89,0,0,1,258.73,271.13Z"/><path class="cls-4" d="M272.55,161.49c-10.77,2.43-25.31-11.55-34.68-16.43a107.55,107.55,0,0,0-101.1,0c-9.38,4.88-23.92,18.86-34.68,16.43-15.15-3.41-9.25-29.84-4.91-39.42,14.67-32.42,54.4-49,90.14-49,33.56,0,70.22,14.34,87.08,43.19C280.17,126.07,290,157.58,272.55,161.49Z"/></g></g></svg>